<svg width="86" height="97" viewBox="0 0 86 97" fill="none" xmlns="http://www.w3.org/2000/svg">
<path d="M43.1518 61.2053C42.4597 61.2053 41.8018 60.869 41.3893 60.2902L32.7745 48.1512H27.1562V43.7317H33.8858C34.5847 43.7317 35.2392 44.0714 35.6483 44.6468L42.6881 54.5639L53.4302 29.6135C53.778 28.8094 54.5587 28.2894 55.4212 28.2894H68.8496V32.7089H56.8428L45.1427 59.8811C44.8291 60.6091 44.1575 61.1082 43.3802 61.1914C43.3086 61.2018 43.2302 61.2053 43.1518 61.2053Z" fill="white"/>
<path d="M23.7637 39.6052H43.0005" stroke="#060F8F" stroke-width="4.52632" stroke-linecap="round" stroke-dasharray="9.05 9.05"/>
<path d="M23.7637 54.3157H27.1584" stroke="#060F8F" stroke-width="4.52632" stroke-linecap="round" stroke-dasharray="9.05 9.05"/>
<path d="M43.1518 61.2053C42.4597 61.2053 41.8018 60.869 41.3893 60.2902L32.7745 48.1512H27.1562V43.7317H33.8858C34.5847 43.7317 35.2392 44.0714 35.6483 44.6468L42.6881 54.5639L53.4302 29.6135C53.778 28.8094 54.5587 28.2894 55.4212 28.2894H68.8496V32.7089H56.8428L45.1427 59.8811C44.8291 60.6091 44.1575 61.1082 43.3802 61.1914C43.3086 61.2018 43.2302 61.2053 43.1518 61.2053Z" fill="white"/>
<path d="M23.7637 39.6052H43.0005" stroke="#060F8F" stroke-width="4.52632" stroke-linecap="round" stroke-dasharray="9.05 9.05"/>
<path d="M23.7637 54.3157H27.1584" stroke="#060F8F" stroke-width="4.52632" stroke-linecap="round" stroke-dasharray="9.05 9.05"/>
<path d="M0 14.7928H6.22368L7.92105 11.316L67.0291 9.31787L64.2076 92.2239V96.1383H0V14.7928Z" fill="url(#paint0_linear_51_795)"/>
<path d="M4.52539 7.92824L14.4154 7.9283L71.5545 4.52637L74.1168 87.9981V91.9586L4.52539 91.3468V7.92824Z" fill="url(#paint1_linear_51_795)"/>
<path d="M10.1855 0.00012207H85.1423V86.3909H10.1855V0.00012207Z" fill="#060F8F"/>
<path d="M43.1518 61.2053C42.4597 61.2053 41.8018 60.869 41.3893 60.2902L32.7745 48.1512H27.1562V43.7317H33.8858C34.5847 43.7317 35.2392 44.0714 35.6483 44.6468L42.6881 54.5639L53.4302 29.6135C53.778 28.8094 54.5587 28.2894 55.4212 28.2894H68.8496V32.7089H56.8428L45.1427 59.8811C44.8291 60.6091 44.1575 61.1082 43.3802 61.1914C43.3086 61.2018 43.2302 61.2053 43.1518 61.2053Z" fill="white"/>
<path fill-rule="evenodd" clip-rule="evenodd" d="M21.5 22.6317C21.5 21.3818 22.5133 20.3685 23.7632 20.3685H25.7906C27.0405 20.3685 28.0537 21.3818 28.0537 22.6317C28.0537 23.8816 27.0405 24.8948 25.7906 24.8948H23.7632C22.5133 24.8948 21.5 23.8816 21.5 22.6317ZM31.6371 22.6317C31.6371 21.3818 32.6503 20.3685 33.9002 20.3685H37.955C39.2049 20.3685 40.2182 21.3818 40.2182 22.6317C40.2182 23.8816 39.2049 24.8948 37.955 24.8948H33.9002C32.6503 24.8948 31.6371 23.8816 31.6371 22.6317ZM43.8015 22.6317C43.8015 21.3818 44.8148 20.3685 46.0647 20.3685H50.1195C51.3694 20.3685 52.3827 21.3818 52.3827 22.6317C52.3827 23.8816 51.3694 24.8948 50.1195 24.8948H46.0647C44.8148 24.8948 43.8015 23.8816 43.8015 22.6317ZM55.966 22.6317C55.966 21.3818 56.9793 20.3685 58.2292 20.3685H62.284C63.5339 20.3685 64.5471 21.3818 64.5471 22.6317C64.5471 23.8816 63.5339 24.8948 62.284 24.8948H58.2292C56.9793 24.8948 55.966 23.8816 55.966 22.6317ZM68.1305 22.6317C68.1305 21.3818 69.1437 20.3685 70.3936 20.3685H72.421C73.6709 20.3685 74.6842 21.3818 74.6842 22.6317C74.6842 23.8816 73.6709 24.8948 72.421 24.8948H70.3936C69.1437 24.8948 68.1305 23.8816 68.1305 22.6317Z" fill="#052CC0"/>
<path fill-rule="evenodd" clip-rule="evenodd" d="M21.5 11.3159C21.5 10.066 22.5133 9.05273 23.7632 9.05273H27.2387C28.4886 9.05273 29.5019 10.066 29.5019 11.3159C29.5019 12.5658 28.4886 13.5791 27.2387 13.5791H23.7632C22.5133 13.5791 21.5 12.5658 21.5 11.3159ZM34.2437 11.3159C34.2437 10.066 35.257 9.05273 36.5069 9.05273H43.458C44.7079 9.05273 45.7212 10.066 45.7212 11.3159C45.7212 12.5658 44.7079 13.5791 43.458 13.5791H36.5069C35.257 13.5791 34.2437 12.5658 34.2437 11.3159ZM50.463 11.3159C50.463 10.066 51.4763 9.05273 52.7262 9.05273H59.6773C60.9272 9.05273 61.9405 10.066 61.9405 11.3159C61.9405 12.5658 60.9272 13.5791 59.6773 13.5791H52.7262C51.4763 13.5791 50.463 12.5658 50.463 11.3159ZM66.6823 11.3159C66.6823 10.066 67.6956 9.05273 68.9455 9.05273H72.421C73.6709 9.05273 74.6842 10.066 74.6842 11.3159C74.6842 12.5658 73.6709 13.5791 72.421 13.5791H68.9455C67.6956 13.5791 66.6823 12.5658 66.6823 11.3159Z" fill="#052CC0"/>
<path fill-rule="evenodd" clip-rule="evenodd" d="M21.5 39.6052C21.5 38.3553 22.5133 37.342 23.7632 37.342H28.5724C29.8223 37.342 30.8355 38.3553 30.8355 39.6052C30.8355 40.8551 29.8223 41.8684 28.5724 41.8684H23.7632C22.5133 41.8684 21.5 40.8551 21.5 39.6052ZM35.9276 39.6052C35.9276 38.3553 36.9409 37.342 38.1908 37.342H43C44.2499 37.342 45.2632 38.3553 45.2632 39.6052C45.2632 40.8551 44.2499 41.8684 43 41.8684H38.1908C36.9409 41.8684 35.9276 40.8551 35.9276 39.6052Z" fill="#052CC0"/>
<path fill-rule="evenodd" clip-rule="evenodd" d="M55.4473 39.6052C55.4473 38.3553 56.4605 37.342 57.7104 37.342L61.3881 37.342C62.638 37.342 63.6512 38.3553 63.6512 39.6052C63.6512 40.8551 62.638 41.8684 61.3881 41.8684L57.7104 41.8684C56.4605 41.8684 55.4473 40.8551 55.4473 39.6052ZM66.4802 39.6052C66.4802 38.3553 67.4934 37.342 68.7433 37.342L72.4209 37.342C73.6709 37.342 74.6841 38.3553 74.6841 39.6052C74.6841 40.8551 73.6709 41.8684 72.4209 41.8684L68.7433 41.8684C67.4934 41.8684 66.4802 40.8551 66.4802 39.6052Z" fill="#052CC0"/>
<path fill-rule="evenodd" clip-rule="evenodd" d="M21.5 54.3158C21.5 53.0659 22.5133 52.0526 23.7632 52.0526H24.6118C24.912 52.0526 25.1984 52.111 25.4605 52.2171C25.7226 52.111 26.0091 52.0526 26.3092 52.0526H27.1579C28.4078 52.0526 29.4211 53.0659 29.4211 54.3158C29.4211 55.5657 28.4078 56.5789 27.1579 56.5789H26.3092C26.0091 56.5789 25.7226 56.5205 25.4605 56.4144C25.1984 56.5205 24.912 56.5789 24.6118 56.5789H23.7632C22.5133 56.5789 21.5 55.5657 21.5 54.3158Z" fill="#052CC0"/>
<path fill-rule="evenodd" clip-rule="evenodd" d="M53.1836 54.3158C53.1836 53.0659 54.1968 52.0526 55.4468 52.0526H59.6902C60.9401 52.0526 61.9533 53.0659 61.9533 54.3158C61.9533 55.5657 60.9401 56.5789 59.6902 56.5789H55.4468C54.1968 56.5789 53.1836 55.5657 53.1836 54.3158ZM65.9139 54.3158C65.9139 53.0659 66.9271 52.0526 68.177 52.0526H72.4204C73.6703 52.0526 74.6836 53.0659 74.6836 54.3158C74.6836 55.5657 73.6703 56.5789 72.4204 56.5789H68.177C66.9271 56.5789 65.9139 55.5657 65.9139 54.3158Z" fill="#052CC0"/>
<path fill-rule="evenodd" clip-rule="evenodd" d="M21.5 69.0262C21.5 67.7763 22.5133 66.7631 23.7632 66.7631H25.7906C27.0405 66.7631 28.0537 67.7763 28.0537 69.0262C28.0537 70.2761 27.0405 71.2894 25.7906 71.2894H23.7632C22.5133 71.2894 21.5 70.2761 21.5 69.0262ZM31.6371 69.0262C31.6371 67.7763 32.6503 66.7631 33.9002 66.7631H37.955C39.2049 66.7631 40.2182 67.7763 40.2182 69.0262C40.2182 70.2761 39.2049 71.2894 37.955 71.2894H33.9002C32.6503 71.2894 31.6371 70.2761 31.6371 69.0262ZM43.8015 69.0262C43.8015 67.7763 44.8148 66.7631 46.0647 66.7631H50.1195C51.3694 66.7631 52.3827 67.7763 52.3827 69.0262C52.3827 70.2761 51.3694 71.2894 50.1195 71.2894H46.0647C44.8148 71.2894 43.8015 70.2761 43.8015 69.0262ZM55.966 69.0262C55.966 67.7763 56.9793 66.7631 58.2292 66.7631H62.284C63.5339 66.7631 64.5471 67.7763 64.5471 69.0262C64.5471 70.2761 63.5339 71.2894 62.284 71.2894H58.2292C56.9793 71.2894 55.966 70.2761 55.966 69.0262ZM68.1305 69.0262C68.1305 67.7763 69.1437 66.7631 70.3936 66.7631H72.421C73.6709 66.7631 74.6842 67.7763 74.6842 69.0262C74.6842 70.2761 73.6709 71.2894 72.421 71.2894H70.3936C69.1437 71.2894 68.1305 70.2761 68.1305 69.0262Z" fill="#052CC0"/>
<path fill-rule="evenodd" clip-rule="evenodd" d="M21.5 79.2107C21.5 77.9608 22.5133 76.9475 23.7632 76.9475H27.2387C28.4886 76.9475 29.5019 77.9608 29.5019 79.2107C29.5019 80.4606 28.4886 81.4738 27.2387 81.4738H23.7632C22.5133 81.4738 21.5 80.4606 21.5 79.2107ZM34.2437 79.2107C34.2437 77.9608 35.257 76.9475 36.5069 76.9475H43.458C44.7079 76.9475 45.7212 77.9608 45.7212 79.2107C45.7212 80.4606 44.7079 81.4738 43.458 81.4738H36.5069C35.257 81.4738 34.2437 80.4606 34.2437 79.2107ZM50.463 79.2107C50.463 77.9608 51.4763 76.9475 52.7262 76.9475H59.6773C60.9272 76.9475 61.9405 77.9608 61.9405 79.2107C61.9405 80.4606 60.9272 81.4738 59.6773 81.4738H52.7262C51.4763 81.4738 50.463 80.4606 50.463 79.2107ZM66.6823 79.2107C66.6823 77.9608 67.6956 76.9475 68.9455 76.9475H72.421C73.6709 76.9475 74.6842 77.9608 74.6842 79.2107C74.6842 80.4606 73.6709 81.4738 72.421 81.4738H68.9455C67.6956 81.4738 66.6823 80.4606 66.6823 79.2107Z" fill="#052CC0"/>
<defs>
<linearGradient id="paint0_linear_51_795" x1="6.22369" y1="59.9739" x2="2.87286" y2="92.117" gradientUnits="userSpaceOnUse">
<stop stop-color="#1544F5"/>
<stop offset="0.94275" stop-color="#FF43CA"/>
</linearGradient>
<linearGradient id="paint1_linear_51_795" x1="26.5104" y1="33.6922" x2="-17.7819" y2="51.6111" gradientUnits="userSpaceOnUse">
<stop stop-color="#00B2FF"/>
<stop offset="0.94275" stop-color="#21FFBE"/>
</linearGradient>
</defs>
</svg>
