<svg width="210" height="210" viewBox="0 0 210 210" fill="none" xmlns="http://www.w3.org/2000/svg">
<path d="M101.566 134.995C100.483 134.995 99.4523 134.469 98.8065 133.563L85.318 114.557H76.5215V107.637H87.0581C88.1524 107.637 89.1772 108.169 89.8177 109.07L100.84 124.597L117.659 85.5316C118.204 84.2725 119.426 83.4584 120.777 83.4584H141.802V90.3781H123.002L104.683 132.922C104.192 134.062 103.141 134.844 101.924 134.974C101.812 134.99 101.689 134.995 101.566 134.995Z" fill="white"/>
<path d="M23.7891 43.8513L141.143 42.5329L142.663 177.788L25.3086 179.107L23.7891 43.8513Z" fill="url(#paint0_linear_51_777)"/>
<path d="M49.7168 29.6068L166.304 43.0639L150.794 177.436L34.207 163.979L49.7168 29.6068Z" fill="url(#paint1_linear_51_777)"/>
<path d="M85.0137 21.2029L198.208 52.1981L162.485 182.66L49.2904 151.665L85.0137 21.2029Z" fill="#060F8F"/>
<path d="M109.494 127.263C108.449 126.977 107.594 126.197 107.21 125.153L99.2204 103.259L90.7362 100.936L92.5637 94.2618L102.726 97.0445C103.782 97.3335 104.63 98.1171 105.009 99.1552L111.54 117.042L138.079 83.8059C138.937 82.7353 140.33 82.2729 141.633 82.6296L161.912 88.1824L160.084 94.8564L141.952 89.8915L113.048 126.087C112.273 127.057 111.052 127.533 109.844 127.337C109.732 127.323 109.612 127.296 109.494 127.263Z" fill="white"/>
<path fill-rule="evenodd" clip-rule="evenodd" d="M93.3864 57.7123C93.9033 55.8248 95.8524 54.7137 97.7399 55.2305L100.802 56.0689C102.689 56.5857 103.8 58.5348 103.283 60.4224C102.767 62.3099 100.817 63.421 98.9299 62.9042L95.8683 62.0658C93.9807 61.549 92.8696 59.5999 93.3864 57.7123ZM108.695 61.9041C109.212 60.0166 111.161 58.9054 113.048 59.4223L119.172 61.099C121.059 61.6158 122.17 63.5649 121.653 65.4525C121.137 67.34 119.187 68.4511 117.3 67.9343L111.177 66.2576C109.289 65.7408 108.178 63.7916 108.695 61.9041ZM127.065 66.9342C127.582 65.0467 129.531 63.9355 131.418 64.4524L137.542 66.1291C139.429 66.6459 140.54 68.595 140.023 70.4826C139.507 72.3701 137.557 73.4813 135.67 72.9644L129.547 71.2877C127.659 70.7709 126.548 68.8217 127.065 66.9342ZM145.435 71.9643C145.952 70.0768 147.901 68.9656 149.788 69.4825L155.911 71.1592C157.799 71.676 158.91 73.6251 158.393 75.5127C157.876 77.4002 155.927 78.5114 154.04 77.9945L147.916 76.3178C146.029 75.801 144.918 73.8518 145.435 71.9643ZM163.805 76.9944C164.321 75.1069 166.271 73.9957 168.158 74.5126L171.22 75.3509C173.107 75.8678 174.218 77.8169 173.702 79.7044C173.185 81.592 171.236 82.7031 169.348 82.1863L166.286 81.3479C164.399 80.8311 163.288 78.8819 163.805 76.9944Z" fill="#052CC0"/>
<path fill-rule="evenodd" clip-rule="evenodd" d="M98.0661 40.6237C98.583 38.7361 100.532 37.625 102.42 38.1418L107.668 39.579C109.556 40.0958 110.667 42.045 110.15 43.9325C109.633 45.82 107.684 46.9312 105.797 46.4143L100.548 44.9772C98.6604 44.4603 97.5493 42.5112 98.0661 40.6237ZM117.311 45.8933C117.828 44.0058 119.777 42.8946 121.664 43.4115L132.161 46.2858C134.049 46.8027 135.16 48.7518 134.643 50.6393C134.126 52.5268 132.177 53.638 130.29 53.1211L119.793 50.2468C117.905 49.73 116.794 47.7808 117.311 45.8933ZM141.804 52.6001C142.321 50.7126 144.27 49.6014 146.158 50.1183L156.655 52.9926C158.542 53.5095 159.653 55.4586 159.137 57.3461C158.62 59.2336 156.671 60.3448 154.783 59.8279L144.286 56.9536C142.398 56.4368 141.287 54.4876 141.804 52.6001ZM166.297 59.3069C166.814 57.4194 168.763 56.3082 170.651 56.8251L175.899 58.2622C177.787 58.7791 178.898 60.7282 178.381 62.6157C177.864 64.5033 175.915 65.6144 174.028 65.0976L168.779 63.6604C166.892 63.1436 165.781 61.1944 166.297 59.3069Z" fill="#052CC0"/>
<path fill-rule="evenodd" clip-rule="evenodd" d="M86.3689 83.3445C86.8857 81.4569 88.8348 80.3458 90.7224 80.8626L97.9849 82.8513C99.8724 83.3681 100.984 85.3172 100.467 87.2048C99.9499 89.0923 98.0008 90.2035 96.1132 89.6866L88.8507 87.698C86.9632 87.1811 85.852 85.232 86.3689 83.3445ZM108.156 89.3104C108.673 87.4229 110.622 86.3117 112.51 86.8286L119.773 88.8172C121.66 89.3341 122.771 91.2832 122.254 93.1707C121.738 95.0582 119.788 96.1694 117.901 95.6525L110.638 93.6639C108.751 93.1471 107.64 91.1979 108.156 89.3104Z" fill="#052CC0"/>
<path fill-rule="evenodd" clip-rule="evenodd" d="M137.633 97.382C138.149 95.4944 140.099 94.3833 141.986 94.9001L147.54 96.4209C149.427 96.9377 150.538 98.8868 150.022 100.774C149.505 102.662 147.556 103.773 145.668 103.256L140.114 101.735C138.227 101.219 137.116 99.2695 137.633 97.382ZM154.294 101.944C154.811 100.057 156.76 98.9455 158.647 99.4623L164.201 100.983C166.088 101.5 167.2 103.449 166.683 105.337C166.166 107.224 164.217 108.335 162.329 107.818L156.775 106.298C154.888 105.781 153.777 103.832 154.294 101.944Z" fill="#052CC0"/>
<path fill-rule="evenodd" clip-rule="evenodd" d="M80.2849 105.559C80.8017 103.671 82.7508 102.56 84.6384 103.077L85.92 103.428C86.3732 103.552 86.7817 103.759 87.1336 104.027C87.5732 103.976 88.03 104.006 88.4832 104.13L89.7649 104.481C91.6524 104.998 92.7636 106.947 92.2467 108.834C91.7299 110.722 89.7807 111.833 87.8932 111.316L86.6116 110.965C86.1584 110.841 85.7499 110.634 85.398 110.366C84.9583 110.418 84.5016 110.387 84.0483 110.263L82.7667 109.912C80.8792 109.396 79.768 107.446 80.2849 105.559Z" fill="#052CC0"/>
<path fill-rule="evenodd" clip-rule="evenodd" d="M128.133 118.661C128.649 116.773 130.599 115.662 132.486 116.179L138.894 117.934C140.782 118.451 141.893 120.4 141.376 122.287C140.859 124.175 138.91 125.286 137.022 124.769L130.614 123.014C128.727 122.498 127.616 120.548 128.133 118.661ZM147.357 123.925C147.874 122.037 149.823 120.926 151.71 121.443L158.119 123.198C160.006 123.715 161.117 125.664 160.6 127.551C160.084 129.439 158.134 130.55 156.247 130.033L149.839 128.278C147.951 127.762 146.84 125.813 147.357 123.925Z" fill="#052CC0"/>
<path fill-rule="evenodd" clip-rule="evenodd" d="M74.2028 127.774C74.7197 125.886 76.6688 124.775 78.5563 125.292L81.618 126.131C83.5055 126.647 84.6167 128.596 84.0998 130.484C83.583 132.372 81.6339 133.483 79.7463 132.966L76.6847 132.127C74.7971 131.611 73.686 129.662 74.2028 127.774ZM89.5111 131.966C90.028 130.078 91.9771 128.967 93.8646 129.484L99.988 131.161C101.875 131.677 102.987 133.627 102.47 135.514C101.953 137.402 100.004 138.513 98.1163 137.996L91.993 136.319C90.1054 135.802 88.9943 133.853 89.5111 131.966ZM107.881 136.996C108.398 135.108 110.347 133.997 112.235 134.514L118.358 136.191C120.245 136.708 121.357 138.657 120.84 140.544C120.323 142.432 118.374 143.543 116.486 143.026L110.363 141.349C108.475 140.833 107.364 138.883 107.881 136.996ZM126.251 142.026C126.768 140.138 128.717 139.027 130.605 139.544L136.728 141.221C138.615 141.738 139.727 143.687 139.21 145.574C138.693 147.462 136.744 148.573 134.856 148.056L128.733 146.379C126.845 145.863 125.734 143.913 126.251 142.026ZM144.621 147.056C145.138 145.169 147.087 144.057 148.975 144.574L152.036 145.413C153.924 145.929 155.035 147.879 154.518 149.766C154.001 151.654 152.052 152.765 150.165 152.248L147.103 151.41C145.215 150.893 144.104 148.944 144.621 147.056Z" fill="#052CC0"/>
<path fill-rule="evenodd" clip-rule="evenodd" d="M69.9919 143.153C70.5087 141.266 72.4579 140.155 74.3454 140.671L79.594 142.109C81.4815 142.625 82.5926 144.575 82.0758 146.462C81.559 148.35 79.6098 149.461 77.7223 148.944L72.4737 147.507C70.5862 146.99 69.4751 145.041 69.9919 143.153ZM89.2366 148.423C89.7535 146.535 91.7026 145.424 93.5901 145.941L104.087 148.815C105.975 149.332 107.086 151.281 106.569 153.169C106.052 155.056 104.103 156.168 102.216 155.651L91.7185 152.776C89.8309 152.259 88.7198 150.31 89.2366 148.423ZM113.73 155.13C114.247 153.242 116.196 152.131 118.083 152.648L128.581 155.522C130.468 156.039 131.579 157.988 131.062 159.876C130.546 161.763 128.596 162.874 126.709 162.357L116.212 159.483C114.324 158.966 113.213 157.017 113.73 155.13ZM138.223 161.836C138.74 159.949 140.689 158.838 142.577 159.355L147.825 160.792C149.713 161.309 150.824 163.258 150.307 165.145C149.79 167.033 147.841 168.144 145.954 167.627L140.705 166.19C138.818 165.673 137.706 163.724 138.223 161.836Z" fill="#052CC0"/>
<defs>
<linearGradient id="paint0_linear_51_777" x1="35.572" y1="122.645" x2="31.4805" y2="172.884" gradientUnits="userSpaceOnUse">
<stop stop-color="#1544F5"/>
<stop offset="0.94275" stop-color="#FF43CA"/>
</linearGradient>
<linearGradient id="paint1_linear_51_777" x1="81.5697" y1="76.9939" x2="5.21289" y2="100.078" gradientUnits="userSpaceOnUse">
<stop stop-color="#00B2FF"/>
<stop offset="0.94275" stop-color="#21FFBE"/>
</linearGradient>
</defs>
</svg>
